<?xml version="1.0" encoding="utf-8"?>
<svg width="33px" height="33px" viewBox="0 0 33 33" version="1.1" xmlns:xlink="http://www.w3.org/1999/xlink" xmlns="http://www.w3.org/2000/svg">
  <desc>Created with Lunacy</desc>
  <g id="Facebook">
    <path d="M16.5 0C7.3873 0 0 7.3873 0 16.5C0 25.6127 7.3873 33 16.5 33C25.6127 33 33 25.6127 33 16.5C33 7.3873 25.6127 0 16.5 0ZM17.5698 16.4308L17.5698 24.8637L13.8556 24.8637L13.8556 16.4312L12 16.4312L12 13.5252L13.8556 13.5252L13.8556 11.7804C13.8556 9.40972 14.9034 8 17.8803 8L20.3587 8L20.3587 10.9063L18.8095 10.9063C17.6507 10.9063 17.574 11.3124 17.574 12.0704L17.5698 13.5248L20.3762 13.5248L20.0478 16.4308L17.5698 16.4308Z" id="Combined-Shape" fill="#F11938" fill-rule="evenodd" stroke="none" />
  </g>
</svg>